<?xml version="1.0" standalone="no"?>
<!DOCTYPE svg PUBLIC "-//W3C//DTD SVG 1.1//EN" "http://www.w3.org/Graphics/SVG/1.1/DTD/svg11.dtd" >
<svg xmlns="http://www.w3.org/2000/svg">
<metadata>
Created by FontForge 20120731 at Tue Dec 13 17:44:13 2016
 By admin
</metadata>
<defs>
<font id="iconfont" horiz-adv-x="1024" >
  <font-face 
    font-family="iconfont"
    font-weight="500"
    font-stretch="normal"
    units-per-em="1024"
    panose-1="2 0 6 3 0 0 0 0 0 0"
    ascent="896"
    descent="-128"
    x-height="792"
    bbox="0 -212.45 1200 812"
    underline-thickness="0"
    underline-position="0"
    unicode-range="U+0078-E62F"
  />
<missing-glyph 
 />
    <glyph glyph-name=".notdef" 
 />
    <glyph glyph-name=".notdef" 
 />
    <glyph glyph-name=".null" horiz-adv-x="0" 
 />
    <glyph glyph-name="nonmarkingreturn" horiz-adv-x="341" 
 />
    <glyph glyph-name="x" unicode="x" horiz-adv-x="1001" 
d="M281 543q-27 -1 -53 -1h-83q-18 0 -36.5 -6t-32.5 -18.5t-23 -32t-9 -45.5v-76h912v41q0 16 -0.5 30t-0.5 18q0 13 -5 29t-17 29.5t-31.5 22.5t-49.5 9h-133v-97h-438v97zM955 310v-52q0 -23 0.5 -52t0.5 -58t-10.5 -47.5t-26 -30t-33 -16t-31.5 -4.5q-14 -1 -29.5 -0.5
t-29.5 0.5h-32l-45 128h-439l-44 -128h-29h-34q-20 0 -45 1q-25 0 -41 9.5t-25.5 23t-13.5 29.5t-4 30v167h911zM163 247q-12 0 -21 -8.5t-9 -21.5t9 -21.5t21 -8.5q13 0 22 8.5t9 21.5t-9 21.5t-22 8.5zM316 123q-8 -26 -14 -48q-5 -19 -10.5 -37t-7.5 -25t-3 -15t1 -14.5
t9.5 -10.5t21.5 -4h37h67h81h80h64h36q23 0 34 12t2 38q-5 13 -9.5 30.5t-9.5 34.5q-5 19 -11 39h-368zM336 498v228q0 11 2.5 23t10 21.5t20.5 15.5t34 6h188q31 0 51.5 -14.5t20.5 -52.5v-227h-327z" />
    <glyph glyph-name="wenben" unicode="&#xe626;" horiz-adv-x="1000" 
d="M811 753h-593q-9 0 -17.5 -0.5t-26.5 -6t-30.5 -16t-23 -32.5t-10.5 -52v-593q0 -31 11 -53t27 -32t32 -16t27 -7h11h593q30 0 52.5 11.5t32.5 25.5t15.5 33t6.5 26t1 12v0v593q0 30 -10.5 52t-23 32.5t-30.5 16t-26.5 6t-17.5 0.5zM865 53q0 -3 -0.5 -6.5t-3.5 -13
t-8 -16.5t-16 -12.5t-26 -5.5h-593h-6t-13 3t-16 8t-13 16t-6 27v593q0 18 6 30.5t16 16.5t16.5 5t15.5 1h593q54 0 54 -53v-593zM326 484h377v54h-377v-54zM326 322h377v54h-377v-54zM326 160h377v54h-377v-54z" />
    <glyph glyph-name="alignbottom" unicode="&#xe612;" 
d="M384 556h-64q-27 0 -45.5 -18.5t-18.5 -45.5v-384q0 -27 18.5 -45.5t45.5 -18.5h64q27 0 45.5 18.5t18.5 45.5v384q0 27 -18.5 45.5t-45.5 18.5zM384 108h-64v384h64v-384zM704 300h-64q-27 0 -45.5 -18.5t-18.5 -45.5v-128q0 -27 18.5 -45.5t45.5 -18.5h64
q27 0 45.5 18.5t18.5 45.5v128q0 27 -18.5 45.5t-45.5 18.5zM704 108h-64v128h64v-128zM832 812h-640q-80 0 -136 -56t-56 -136v-640q0 -80 56 -136t136 -56h640q79 0 135.5 56t56.5 136v640q0 80 -56.5 136t-135.5 56zM896 -20q0 -27 -18.5 -45.5t-45.5 -18.5h-640
q-27 0 -45.5 18.5t-18.5 45.5v640q0 27 18.5 45.5t45.5 18.5h640q27 0 45.5 -18.5t18.5 -45.5v-640z" />
    <glyph glyph-name="aligntop" unicode="&#xe613;" 
d="M384 556h-64q-27 0 -45.5 -18.5t-18.5 -45.5v-384q0 -27 18.5 -45.5t45.5 -18.5h64q27 0 45.5 18.5t18.5 45.5v384q0 27 -18.5 45.5t-45.5 18.5zM384 108h-64v384h64v-384zM832 812h-640q-80 0 -136 -56t-56 -136v-640q0 -80 56 -136t136 -56h640q79 0 135.5 56t56.5 136
v640q0 80 -56.5 136t-135.5 56zM896 -20q0 -27 -18.5 -45.5t-45.5 -18.5h-640q-27 0 -45.5 18.5t-18.5 45.5v640q0 27 18.5 45.5t45.5 18.5h640q27 0 45.5 -18.5t18.5 -45.5v-640zM704 556h-64q-27 0 -45.5 -18.5t-18.5 -45.5v-128q0 -27 18.5 -45.5t45.5 -18.5h64
q27 0 45.5 18.5t18.5 45.5v128q0 27 -18.5 45.5t-45.5 18.5zM704 364h-64v128h64v-128z" />
    <glyph glyph-name="alignverticalcenters" unicode="&#xe614;" 
d="M384 556h-64q-27 0 -45.5 -18.5t-18.5 -45.5v-384q0 -27 18.5 -45.5t45.5 -18.5h64q27 0 45.5 18.5t18.5 45.5v384q0 27 -18.5 45.5t-45.5 18.5zM384 108h-64v384h64v-384zM832 812h-640q-80 0 -136 -56t-56 -136v-640q0 -80 56 -136t136 -56h640q79 0 135.5 56t56.5 136
v640q0 80 -56.5 136t-135.5 56zM896 -20q0 -27 -18.5 -45.5t-45.5 -18.5h-640q-27 0 -45.5 18.5t-18.5 45.5v640q0 27 18.5 45.5t45.5 18.5h640q27 0 45.5 -18.5t18.5 -45.5v-640zM704 428h-64q-27 0 -45.5 -18.5t-18.5 -45.5v-128q0 -27 18.5 -45.5t45.5 -18.5h64
q27 0 45.5 18.5t18.5 45.5v128q0 27 -18.5 45.5t-45.5 18.5zM704 236h-64v128h64v-128z" />
    <glyph glyph-name="alignjustify" unicode="&#xe615;" 
d="M128 599h768q18 0 30.5 -12.5t12.5 -30.5t-12.5 -30.5t-30.5 -12.5h-768q-18 0 -30.5 12.5t-12.5 30.5t12.5 30.5t30.5 12.5zM128 87h768q18 0 30.5 -12.5t12.5 -30.5t-12.5 -30.5t-30.5 -12.5h-768q-18 0 -30.5 12.5t-12.5 30.5t12.5 30.5t30.5 12.5zM128 257h768
q18 0 30.5 -12.5t12.5 -30t-12.5 -30t-30.5 -12.5h-768q-18 0 -30.5 12.5t-12.5 30t12.5 30t30.5 12.5zM128 428h768q18 0 30.5 -12.5t12.5 -30t-12.5 -30t-30.5 -12.5h-768q-18 0 -30.5 12.5t-12.5 30t12.5 30t30.5 12.5z" />
    <glyph glyph-name="aligncenter" unicode="&#xe616;" 
d="M1024 692v-61h-1024v61h1024zM90 451v-61h844v61h-844zM0 149h1024v61h-1024v-61zM211 -92h602v61h-602v-61z" />
    <glyph glyph-name="iconfuzhi" unicode="&#xe62e;" 
d="M921 812h-818q-43 0 -73 -30t-30 -73v-818q0 -43 30 -73t73 -30h818q43 0 73 30t30 73v818q0 43 -30 73t-73 30zM921 -58q0 -21 -15 -36t-36 -15h-716q-21 0 -36 15t-15 36v716q0 21 15 36t36 15h716q21 0 36 -15t15 -36v-716zM205 607h205v-51h-205v51zM205 402h256v-51
h-256v51zM563 402h256v-51h-256v51zM563 607h256v-51h-256v51zM307 556h103v-205h-103v205zM717 556h102v-205h-102v205zM563 556h51v-205h-51v205zM205 249h256v-51h-256v51zM358 198h103v-103h-103v103zM205 146h256v-51h-256v51zM563 249h51v-103h-51v103zM563 146h256
v-51h-256v51zM205 95h102v-102h-102v102zM717 249h102v-256h-102v256zM205 44h256v-51h-256v51z" />
    <glyph glyph-name="bold" unicode="&#xe60c;" 
d="M807 176q-13 35 -37 60t-57 41.5t-75 22.5v2q39 14 66 34t44.5 46t25 56t7.5 63q0 41 -13 76.5t-36.5 63t-58 47.5t-76.5 31q-15 4 -33 7t-39 5t-46 3t-55 1h-222v-901h230q68 0 116 5.5t88 18.5q52 18 87 45.5t56.5 60t31 67t9.5 66.5q0 44 -13 79zM251 680l183 -1
q69 0 80 -1q56 -5 71 -9q51 -16 85 -46q20 -18 37.5 -52.5t17.5 -58.5q-2 -72 -35 -107q-36 -38 -103 -60q-10 -4 -54 -9q-32 -4 -55 -4h-227v348zM758 58q-8 -27 -19 -44q-29 -42 -43 -52q-50 -37 -69 -43q-51 -17 -78 -20q-42 -5 -94 -5h-204v372h247q41 0 68 -2
q28 -2 49 -7q45 -10 64 -21q39 -23 49 -37q15 -20 24 -41q10 -23 10 -52q0 -32 -4 -48z" />
    <glyph glyph-name="italic" unicode="&#xe60d;" 
d="M288 -119h24h31.5t24 1.5t20 5t14 9.5t12.5 16t8.5 24t7.5 34l112 640q2 15 3 26t0.5 20t-4.5 15.5t-7 11t-12 7t-15 4.5t-20.5 2.5t-23.5 0.5h-29h-4l6 36h302l-7 -36h-10h-34.5t-26.5 -1.5t-22 -5t-15 -9t-13 -15t-8 -22.5t-8 -32l-111 -649q-3 -17 -4.5 -28.5t0.5 -21
t3.5 -15.5t10 -10.5t14 -6.5t21 -3t26 -1h33.5l-7 -36h-298z" />
    <glyph glyph-name="bgcolor" unicode="&#xe61a;" 
d="M640 599q0 89 -62 151t-151.5 62t-151.5 -62t-62 -151v-86l86 86q0 54 36.5 91t91 37t91.5 -37t37 -91v-103v-196v-26q0 -8 -5 -8q-6 -19 -17 -30q-19 -19 -44.5 -19t-44.5 19t-19 44.5t19 45.5q26 26 68 12v201l-90 94l-413 -414q-19 -19 30 -94t136 -162t162 -136
t94 -30l414 413l-205 201v188zM725 385l171 -170v-278q0 -25 19 -44.5t45 -19.5t45 19.5t19 44.5q0 358 -299 448z" />
    <glyph glyph-name="leftalign" unicode="&#xe617;" 
d="M973 637h-922q-14 0 -24.5 10t-10.5 25t10.5 25t24.5 10h922q14 0 24.5 -10t10.5 -25t-10.5 -25t-24.5 -10zM51 459h638q15 0 25.5 -10t10.5 -25t-10.5 -25t-25.5 -10h-638q-14 0 -24.5 10t-10.5 25t10.5 25t24.5 10zM51 211h922q14 0 24.5 -10t10.5 -25t-10.5 -25
t-24.5 -10h-922q-14 0 -24.5 10t-10.5 25t10.5 25t24.5 10zM51 -37h532q15 0 25 -10t10 -25t-10 -25t-25 -10h-532q-14 0 -24.5 10t-10.5 25t10.5 25t24.5 10z" />
    <glyph glyph-name="rightalign" unicode="&#xe618;" 
d="M973 141h-922q-14 0 -24.5 10t-10.5 25t10.5 25t24.5 10h922q14 0 24.5 -10t10.5 -25t-10.5 -25t-24.5 -10zM973 389h-638q-15 0 -25.5 10t-10.5 25t10.5 25t25.5 10h638q14 0 24.5 -10t10.5 -25t-10.5 -25t-24.5 -10zM973 637h-922q-14 0 -24.5 10t-10.5 25t10.5 25
t24.5 10h922q14 0 24.5 -10t10.5 -25t-10.5 -25t-24.5 -10zM441 -37h532q14 0 24.5 -10t10.5 -25t-10.5 -25t-24.5 -10h-532q-15 0 -25 10t-10 25t10 25t25 10z" />
    <glyph glyph-name="xiala" unicode="&#xe627;" 
d="M346 -31v111h609v-111h-609zM346 355h609v-110h-609v110zM346 631h609v-111h-609v111zM69 135h111h111v-221h-222v221zM69 190v220h111h111v-220h-111h-111zM69 465v221h111h55h56v-221h-111h-111z" />
    <glyph glyph-name="iconxialafuxuankuang" unicode="&#xe62b;" 
d="M578.5 126q-20.5 0 -35.5 15l-113 113q-15 15 -15 35.5t15 36t35.5 15.5t36.5 -15l77 -77l209 210q16 15 36.5 15t36 -15.5t15.5 -36t-16 -35.5l-246 -246q-15 -15 -35.5 -15zM922 -212h-820q-42 0 -72 30t-30 72v820q0 42 30 72t72 30h820q42 0 72 -30t30 -72v-820
q0 -42 -30 -72t-72 -30zM102 710v-820h820v820h-820z" />
    <glyph glyph-name="iconxialakuang" unicode="&#xe62c;" 
d="M799 454q23 0 30 -13.5t-5 -32.5l-128 -221q-11 -19 -25 -19t-26 19l-128 221q-11 19 -2.5 32.5t28.5 13.5h256zM922 -212h-820q-42 0 -72 30t-30 72v820q0 42 30 72t72 30h820q42 0 72 -30t30 -72v-820q0 -42 -30 -72t-72 -30zM102 710v-820h820v820h-820z" />
    <glyph glyph-name="iconsave" unicode="&#xe611;" 
d="M794 226h-558q-8 0 -13.5 -5.5t-5.5 -13.5v-37q0 -8 5.5 -13.5t13.5 -5.5h558q8 0 13.5 5.5t5.5 13.5v37q0 8 -5.5 13.5t-13.5 5.5zM701 747h-521q-46 0 -79 -32.5t-33 -79.5v-670q0 -46 33 -78.5t79 -32.5h670q46 0 78.5 32.5t32.5 78.5v521q0 30 -52 93.5t-115.5 115.5
t-92.5 52zM291 598q0 16 11 26.5t27 10.5h335q15 0 26 -10.5t11 -26.5v-186q0 -15 -11 -26t-26 -11h-335q-16 0 -27 11t-11 26v186zM887 -35q0 -15 -11 -26t-26 -11h-670q-16 0 -26.5 11t-10.5 26v298q0 16 10.5 26.5t26.5 10.5h670q15 0 26 -10.5t11 -26.5v-298zM608 412
h37q8 0 13.5 5.5t5.5 13.5v149q0 7 -5.5 12.5t-13.5 5.5h-37q-8 0 -13.5 -5.5t-5.5 -12.5v-149q0 -8 5.5 -13.5t13.5 -5.5zM794 77h-558q-8 0 -13.5 -5.5t-5.5 -13.5v-37q0 -8 5.5 -13t13.5 -5h558q8 0 13.5 5t5.5 13v37q0 8 -5.5 13.5t-13.5 5.5z" />
    <glyph glyph-name="checkboxempty" unicode="&#xe61d;" 
d="M811 684h-598q-35 0 -60 -25t-25 -60v-598q0 -35 25 -60t60 -25h598q35 0 60 25t25 60v598q0 35 -25 60t-60 25zM864 10q0 -32 -15 -47t-47 -15h-580q-32 0 -47 15t-15 47v580q0 32 15 47t47 15h580q32 0 47 -15t15 -47v-580z" />
    <glyph glyph-name="iconfontdaikuanshenhezhong" unicode="&#xe622;" horiz-adv-x="1059" 
d="M94 812h584h131h37q22 0 30 -2q24 -7 45 -23q3 -2 7 -7l3 -3q9 -11 9 -12q9 -14 15 -41q1 -3 1 -24v-47v-127v-148v-48q-2 -9 -4 -13q-7 -10 -18 -15q-12 -5 -24 0.5t-18 14.5q-3 4 -4 11t-1 12t0.5 15.5t0.5 13.5v271v50q0 30 -8 40q-3 4 -4 5q-8 6 -18 8h-1h-1h-1h-1
l-1 1h-1h-1h-1h-1h-1h-1h-1h-27h-112h-451h-122h-21q-10 0 -11 -1h-3.5h-4.5q-13 -4 -19 -14q-7 -9 -7 -53v-115v-450v-121q0 -37 2 -41q4 -12 13 -18t41 -6h75h301h32q15 0 16 -1q8 -2 15 -7t10.5 -16t-0.5 -23q-5 -14 -19 -20q-5 -2 -46 -2h-98h-211h-76q-35 0 -43 2
q-52 15 -72 61q-3 6 -4.5 13.5t-2.5 18t-1 16.5v20.5v18.5v158v404v108v42q1 2 1 5.5t1 4.5q4 17 7 24q16 36 56 53q3 2 19 6h5t5 1z" />
    <glyph glyph-name="superscript" unicode="&#xe60e;" 
d="M768 606v-50h128v-64h-192v146l128 60v50h-128v64h192v-146zM676 556h-136l-188 -188l-188 188h-136l256 -256l-256 -256h136l188 188l188 -188h136l-256 256z" />
    <glyph glyph-name="empty" unicode="&#xe623;" horiz-adv-x="1025" 
d="M895 -212h-766q-53 0 -91 38t-38 91v766q0 53 38 91t91 38h766q53 0 91 -38t38 -91v-766q3 -52 -36.5 -90.5t-92.5 -38.5v0zM990 683q0 34 -28 64.5t-67 30.5h-768q-39 0 -67 -30.5t-28 -64.5v-768q0 -36 29.5 -65.5t65.5 -29.5h768q38 0 66.5 27.5t28.5 67.5v768v0z" />
    <glyph glyph-name="close" unicode="&#xe61c;" 
d="M343 493l-24 -24l169 -169l-168 -168l24 -24l168 168l168 -168l24 24l-168 168l169 169l-24 24l-169 -169z" />
    <glyph glyph-name="ziti" unicode="&#xe61e;" 
d="M865 433zM568 1v248v0v441h165q22 0 33.5 -1t24.5 -7t19 -15t13.5 -29.5t13 -46.5t13.5 -70h50l-31 227h-713l-33 -227h50q8 44 13.5 69.5t13 46.5t14 30t19 15t24.5 7t35 1h164v-441v0v-248q0 -28 -0.5 -42.5t-5.5 -28t-11.5 -19t-23 -10t-34.5 -5t-51 -0.5v-43h365v43
q-34 0 -52 0.5t-34.5 5t-22.5 9.5t-11 19.5t-6 28.5t-1 42zM698 13h261v-58h-261v58z" />
    <glyph glyph-name="ziti1" unicode="&#xe61f;" 
d="M865 433zM568 1v248v0v441h165q22 0 33.5 -1t24.5 -7t19 -15t13.5 -29.5t13 -46.5t13.5 -70h50l-31 227h-713l-33 -227h50q8 44 13.5 69.5t13 46.5t14 30t19 15t24.5 7t35 1h164v-441v0v-248q0 -28 -0.5 -42.5t-5.5 -28t-11.5 -19t-23 -10t-34.5 -5t-51 -0.5v-43h365v43
q-34 0 -52 0.5t-34.5 5t-22.5 9.5t-11 19.5t-6 28.5t-1 42zM959 13h-102v101h-58v-101h-101v-58h101v-102h58v102h102v58z" />
    <glyph glyph-name="zitifangda" unicode="&#xe620;" 
d="M304 286h-110v111h-83v-111h-111v-83h111v-111h83v111h110v83zM750 574l-40 72h-93l-35 -72l-278 -620h111l106 249h290l102 -249h111zM556 286l112 263l108 -263h-220z" />
    <glyph glyph-name="zitisuoxiao" unicode="&#xe621;" 
d="M304 286h-304v-83h304v83zM750 574l-40 72h-93l-35 -72l-278 -620h111l106 249h290l102 -249h111zM556 286l112 263l108 -263h-220z" />
    <glyph glyph-name="tubiao1xinchuangkoudakai" unicode="&#xe628;" 
d="M432 25h-22h-46h-159q-19 0 -32.5 13.5t-13.5 32.5v410h683v-23v-23q0 -9 6.5 -16t16 -7t16 7t6.5 16v23v23v136q0 28 -20 48t-48 20h-637q-28 0 -48 -20t-20 -48v-569q0 -28 20 -48t48 -20h182h46h22q10 0 16.5 6.5t6.5 16t-6.5 16t-16.5 6.5zM159 594q0 19 13.5 32.5
t32.5 13.5h591q19 0 32.5 -13.5t13.5 -32.5v-68h-683v68zM887 344h-273q-9 0 -15.5 -6.5t-6.5 -16t6.5 -16t15.5 -6.5h216q-4 -3 -5 -4l-319 -342q-7 -6 -7 -15.5t7 -16t16.5 -6.5t15.5 6l319 342q6 5 8 8v1v0v-1v0v-223q0 -9 6.5 -16t16 -7t16 7t6.5 16v273q0 10 -6.5 16.5
t-16.5 6.5z" />
    <glyph glyph-name="cubanxinchuangkoudakai" unicode="&#xe629;" 
d="M887 345h-295q-14 0 -24 -10t-10 -24t10 -24t24 -10h213l-305 -305q-10 -10 -10 -24t10 -24t24.5 -10t24.5 10l304 304v-213q0 -14 10 -24t24.5 -10t24.5 10t10 24v296q0 14 -10 24t-25 10zM876 465v130q0 38 -26.5 64.5t-64.5 26.5h-592q-37 0 -64 -26.5t-27 -64.5v-523
q0 -38 27 -64.5t64 -26.5h205v0q14 0 23.5 10t9.5 24t-9.5 24t-23.5 10v0h-182q-19 0 -32 13.5t-13 32.5v386h637v-18v-0.5v-1.5q0 -14 10 -24t24 -10t24 10t10 24v2.5v1.5zM808 527h-637v45q0 19 13 32.5t32 13.5h546q19 0 32.5 -13.5t13.5 -32.5v-45z" />
    <glyph glyph-name="mianxingtubiaozitizihao" unicode="&#xe62d;" 
d="M854 -14l-298 603l-36 69v0q-9 19 -30 19t-30 -19v0h-1v0l-18 -41v-0.5v-0.5l-272 -645q-5 -13 4 -26t23 -19q14 -5 32.5 1t23.5 19l69 165h352l77 -160q7 -17 32 -25t42 0q18 8 27.5 25.5t2.5 34.5zM350 180l136 322l154 -322h-290z" />
    <glyph glyph-name="borderall" unicode="&#xe600;" 
d="M810 342v256h-256v-256h256zM810 2v256h-256v-256h256zM470 342v256h-256v-256h256zM470 2v256h-256v-256h256zM128 684h768v-768h-768v768z" />
    <glyph glyph-name="borderbottom" unicode="&#xe601;" 
d="M214 172v-86h-86v86h86zM128 -84v86h768v-86h-768zM214 342v-84h-86v84h86zM810 428v86h86v-86h-86zM810 684h86v-86h-86v86zM214 514v-86h-86v86h86zM810 86v86h86v-86h-86zM810 258v84h86v-84h-86zM726 684v-86h-86v86h86zM554 684v-86h-84v86h84zM726 342v-84h-86v84
h86zM554 514v-86h-84v86h84zM214 684v-86h-86v86h86zM554 342v-84h-84v84h84zM384 684v-86h-86v86h86zM554 172v-86h-84v86h84zM384 342v-84h-86v84h86z" />
    <glyph glyph-name="borderclear" unicode="&#xe602;" 
d="M640 598v86h86v-86h-86zM640 258v84h86v-84h-86zM640 -84v86h86v-86h-86zM470 598v86h84v-86h-84zM810 684h86v-86h-86v86zM470 428v86h84v-86h-84zM810 428v86h86v-86h-86zM810 -84v86h86v-86h-86zM810 258v84h86v-84h-86zM810 86v86h86v-86h-86zM470 258v84h84v-84h-84
zM128 598v86h86v-86h-86zM128 428v86h86v-86h-86zM128 258v84h86v-84h-86zM128 86v86h86v-86h-86zM128 -84v86h86v-86h-86zM470 -84v86h84v-86h-84zM470 86v86h84v-86h-84zM298 -84v86h86v-86h-86zM298 258v84h86v-84h-86zM298 598v86h86v-86h-86z" />
    <glyph glyph-name="borderhorizontal" unicode="&#xe603;" 
d="M810 -84v86h86v-86h-86zM640 -84v86h86v-86h-86zM470 86v86h84v-86h-84zM810 428v86h86v-86h-86zM810 684h86v-86h-86v86zM128 258v84h768v-84h-768zM470 -84v86h84v-86h-84zM810 86v86h86v-86h-86zM554 684v-86h-84v86h84zM554 514v-86h-84v86h84zM726 684v-86h-86v86
h86zM384 684v-86h-86v86h86zM214 684v-86h-86v86h86zM298 -84v86h86v-86h-86zM128 86v86h86v-86h-86zM214 514v-86h-86v86h86zM128 -84v86h86v-86h-86z" />
    <glyph glyph-name="borderinner" unicode="&#xe604;" 
d="M810 86v86h86v-86h-86zM810 -84v86h86v-86h-86zM554 684v-342h342v-84h-342v-342h-84v342h-342v84h342v342h84zM640 -84v86h86v-86h-86zM810 684h86v-86h-86v86zM810 428v86h86v-86h-86zM726 684v-86h-86v86h86zM214 684v-86h-86v86h86zM384 684v-86h-86v86h86zM128 86
v86h86v-86h-86zM214 514v-86h-86v86h86zM298 -84v86h86v-86h-86zM128 -84v86h86v-86h-86z" />
    <glyph glyph-name="borderleft" unicode="&#xe605;" 
d="M640 598v86h86v-86h-86zM640 258v84h86v-84h-86zM810 -84v86h86v-86h-86zM810 258v84h86v-84h-86zM810 684h86v-86h-86v86zM810 86v86h86v-86h-86zM640 -84v86h86v-86h-86zM810 428v86h86v-86h-86zM128 -84v768h86v-768h-86zM298 258v84h86v-84h-86zM298 598v86h86v-86
h-86zM298 -84v86h86v-86h-86zM470 258v84h84v-84h-84zM470 428v86h84v-86h-84zM470 598v86h84v-86h-84zM470 86v86h84v-86h-84zM470 -84v86h84v-86h-84z" />
    <glyph glyph-name="borderouter" unicode="&#xe606;" 
d="M384 342v-84h-86v84h86zM554 172v-86h-84v86h84zM810 2v596h-596v-596h596zM128 684h768v-768h-768v768zM726 342v-84h-86v84h86zM554 342v-84h-84v84h84zM554 514v-86h-84v86h84z" />
    <glyph glyph-name="borderright" unicode="&#xe607;" 
d="M470 428v86h84v-86h-84zM470 598v86h84v-86h-84zM470 258v84h84v-84h-84zM640 598v86h86v-86h-86zM640 -84v86h86v-86h-86zM810 684h86v-768h-86v768zM640 258v84h86v-84h-86zM470 86v86h84v-86h-84zM128 428v86h86v-86h-86zM128 86v86h86v-86h-86zM128 258v84h86v-84
h-86zM470 -84v86h84v-86h-84zM128 -84v86h86v-86h-86zM298 258v84h86v-84h-86zM298 598v86h86v-86h-86zM128 598v86h86v-86h-86zM298 -84v86h86v-86h-86z" />
    <glyph glyph-name="bordertop" unicode="&#xe608;" 
d="M640 258v84h86v-84h-86zM810 -84v86h86v-86h-86zM470 428v86h84v-86h-84zM640 -84v86h86v-86h-86zM810 86v86h86v-86h-86zM128 684h768v-86h-768v86zM810 258v84h86v-84h-86zM810 428v86h86v-86h-86zM470 86v86h84v-86h-84zM128 428v86h86v-86h-86zM128 258v84h86v-84
h-86zM128 -84v86h86v-86h-86zM128 86v86h86v-86h-86zM470 -84v86h84v-86h-84zM470 258v84h84v-84h-84zM298 258v84h86v-84h-86zM298 -84v86h86v-86h-86z" />
    <glyph glyph-name="bordervertical" unicode="&#xe609;" 
d="M640 258v84h86v-84h-86zM640 -84v86h86v-86h-86zM640 598v86h86v-86h-86zM810 428v86h86v-86h-86zM810 684h86v-86h-86v86zM810 258v84h86v-84h-86zM810 -84v86h86v-86h-86zM470 -84v768h84v-768h-84zM810 86v86h86v-86h-86zM298 598v86h86v-86h-86zM128 86v86h86v-86
h-86zM128 -84v86h86v-86h-86zM128 258v84h86v-84h-86zM298 258v84h86v-84h-86zM298 -84v86h86v-86h-86zM128 598v86h86v-86h-86zM128 428v86h86v-86h-86z" />
    <glyph glyph-name="formatcolortext" unicode="&#xe61b;" 
d="M410 300h204l-102 270zM470 684h84l234 -598h-96l-46 128h-268l-48 -128h-96zM0 -42h1024v-170h-1024v170z" />
    <glyph glyph-name="underline" unicode="&#xe60f;" 
d="M742 -110h-460q-11 0 -18.5 7.5t-7.5 18.5t7.5 18.5t18.5 7.5h460q11 0 18.5 -7.5t7.5 -18.5t-7.5 -18.5t-18.5 -7.5zM512 44q-106 0 -181 75t-75 181v384q0 11 7.5 18.5t18 7.5t18 -7.5t7.5 -18.5v-384q0 -85 60 -145t145 -60t145 60t60 145v384q0 11 7.5 18.5t18 7.5
t18 -7.5t7.5 -18.5v-384q0 -106 -75 -181t-181 -75z" />
    <glyph glyph-name="subscript" unicode="&#xe610;" 
d="M768 -98v-50h128v-64h-192v146l128 60v50h-128v64h192v-146zM676 556h-136l-188 -188l-188 188h-136l256 -256l-256 -256h136l188 188l188 -188h136l-256 256z" />
    <glyph glyph-name="caidan" unicode="&#xe62a;" 
d="M230 637h701q12 0 19.5 -8t7.5 -19v-26q0 -11 -7.5 -19t-19.5 -8h-701q-11 0 -19 8t-8 19v26q0 11 8 19t19 8v0zM230 339h701q12 0 19.5 -8t7.5 -19v-26q0 -11 -7.5 -19t-19.5 -8h-701q-11 0 -19 8t-8 19v26q0 11 8 19t19 8v0zM230 40h701q12 0 19.5 -7.5t7.5 -18.5v-26
q0 -11 -7.5 -19t-19.5 -8h-701q-11 0 -19 8t-8 19v26q0 11 8 18.5t19 7.5v0zM90 637h26q11 0 19 -8t8 -19v-26q0 -11 -8 -19t-19 -8h-26q-11 0 -18.5 8t-7.5 19v26q0 11 7.5 19t18.5 8v0zM90 339h26q11 0 19 -8t8 -19v-26q0 -11 -8 -19t-19 -8h-26q-11 0 -18.5 8t-7.5 19v26
q0 11 7.5 19t18.5 8v0zM90 39h26q11 0 19 -7.5t8 -18.5v-26q0 -11 -8 -19t-19 -8h-26q-11 0 -18.5 8t-7.5 19v26q0 11 7.5 18.5t18.5 7.5v0z" />
    <glyph glyph-name="cellmerge" unicode="&#xe60a;" horiz-adv-x="1201" 
d="M1192 49.5q-8 8.5 -20 8.5t-20 -8l-194 -193l-193 193q-8 8 -20 8t-20 -8.5t-8 -20t8 -19.5l213 -214v0v0q14 -13 31 -6q5 2 10 6l213 214q8 8 8 19.5t-8 20zM947 812h-870q-32 0 -54.5 -22.5t-22.5 -54.5v-870q0 -32 22.5 -54.5t54.5 -22.5h674v0q10 0 17.5 7.5t7.5 18
t-7.5 18t-17.5 7.5v0h-418v691h640v-450q0 -11 7.5 -18.5t18 -7.5t18 7.5t7.5 18.5v655q0 32 -22.5 54.5t-54.5 22.5zM282 -161h-205q-11 0 -18.5 7.5t-7.5 18.5v153h231v-179zM282 70h-231v204h231v-204zM282 326h-231v204h231v-204zM282 582h-231v153q0 11 7.5 18.5
t18.5 7.5h205v-179zM640 582h-307v179h307v-179zM973 582h-282v179h256q11 0 18.5 -7.5t7.5 -18.5v-153z" />
    <glyph glyph-name="alignjustify1" unicode="&#xe619;" 
d="M128 727v-896h725v896h-725zM768 -84h-555v725h555v-725zM683 513h-384v-85h384v85zM683 385h-384v-42h384v42zM683 300h-384v-43h384v43zM683 215h-384v-43h384v43zM683 129h-384v-42h384v42z" />
    <glyph glyph-name="excel" unicode="&#xe60b;" 
d="M864 748h-576q-40 0 -68 -28t-28 -68v-96h-64q-27 0 -45.5 -18.5t-18.5 -45.5v-384q0 -27 18.5 -45.5t45.5 -18.5h64v-96q0 -40 28 -68t68 -28h576q40 0 68 28t28 68v704q0 40 -28 68t-68 28zM436 184h-77l-39 58l-39 -58h-77l77 116l-77 116h77l39 -58l39 58h77
l-77 -116zM896 -52q0 -13 -9.5 -22.5t-22.5 -9.5h-576q-13 0 -22.5 9.5t-9.5 22.5v96h256q27 0 45.5 18.5t18.5 45.5v64h224q13 0 22.5 9.5t9.5 22.5t-9.5 22.5t-22.5 9.5h-224v64h224q13 0 22.5 9.5t9.5 22.5t-9.5 22.5t-22.5 9.5h-224v64h224q13 0 22.5 9.5t9.5 22.5
t-9.5 22.5t-22.5 9.5h-224q0 27 -18.5 45.5t-45.5 18.5h-256v96q0 13 9.5 22.5t22.5 9.5h576q13 0 22.5 -9.5t9.5 -22.5v-704z" />
    <glyph glyph-name="iocnnianfenkongjian" unicode="&#xe624;" 
d="M171 331h128v-214h-128v214zM683 331h128v-214h-128v214zM811 715v-43h-128v43h-384v-43h-128v43h-128v-854h896v854h-128zM896 -96h-811v640h811v-640zM341 245h43v-42h-43v42zM384 288h85v-43h-85v43zM469 245h43v-42h-43v42zM512 203h85v-43h-85v43zM597 245h43v-42
h-43v42z" />
    <glyph glyph-name="iocnriqikongjian" unicode="&#xe625;" 
d="M427 471h128v-128h-128v128zM597 471h128v-128h-128v128zM768 471h128v-128h-128v128zM256 129h128v-128h-128v128zM427 129h128v-128h-128v128zM597 129h128v-128h-128v128zM427 300h128v-128h-128v128zM597 300h128v-128h-128v128zM768 300h128v-128h-128v128zM256 300
h128v-128h-128v128zM896 727v-43h-128v43h-384v-43h-128v43h-128v-854h896v854h-128zM981 -84h-810v640h810v-640z" />
    <glyph glyph-name="22" unicode="&#xe62f;" 
d="M421 612h182v-624h-182v624zM152 701h720v-89h-720v89zM330 -12h364v-89h-364v89zM152 701h89v-187h-89v187zM783 701h89v-187h-89v187z" />
  </font>
</defs>
</svg>
